<svg data-v-423bf9ae="" xmlns="http://www.w3.org/2000/svg" viewBox="0 0 444 90" class="iconLeft"><!----><!----><!----><g data-v-423bf9ae="" id="604dbacb-e3dc-4e84-8726-07a2fdf3b740" fill="#7DE38D" transform="matrix(5.479452150239503,0,0,5.479452150239503,61.159420729916604,17.465751926460285)"><path d="M4.40 4.27L4.40 4.27Q3.77 4.75 3.38 5.21L3.38 5.21L3.38 5.21Q3.00 5.67 3.00 5.99L3.00 5.99L3.00 5.99Q3.00 6.15 3.26 6.31L3.26 6.31L3.26 6.31Q3.53 6.47 4.14 6.75L4.14 6.75L4.14 6.75Q5.12 7.20 5.68 7.58L5.68 7.58L5.68 7.58Q6.24 7.97 6.24 8.47L6.24 8.47L6.24 8.47Q6.24 8.97 5.68 9.44L5.68 9.44L5.68 9.44Q5.11 9.91 4.27 10.21L4.27 10.21L4.27 10.21Q3.43 10.50 2.70 10.50L2.70 10.50L2.70 10.50Q2.16 10.50 1.55 10.27L1.55 10.27L1.55 10.27Q0.95 10.04 0.55 9.68L0.55 9.68L0.55 9.68Q0.14 9.32 0.14 9.00L0.14 9.00L0.14 9.00Q0.14 8.43 0.51 8.09L0.51 8.09L0.51 8.09Q0.88 7.74 1.48 7.74L1.48 7.74L1.48 7.74Q1.76 7.74 2.06 7.83L2.06 7.83L2.06 7.83Q2.30 8.58 2.46 8.90L2.46 8.90L2.46 8.90Q3.32 8.68 3.99 8.15L3.99 8.15L3.99 8.15Q2.81 7.64 1.84 7.01L1.84 7.01L1.84 7.01Q0.87 6.38 0.87 5.84L0.87 5.84L0.87 5.84Q0.87 5.28 1.39 4.50L1.39 4.50L1.39 4.50Q1.90 3.72 2.71 3.16L2.71 3.16L2.71 3.16Q3.51 2.59 4.35 2.59L4.35 2.59L4.35 2.59Q4.93 2.59 5.45 2.93L5.45 2.93L5.45 2.93Q5.98 3.26 6.30 3.77L6.30 3.77L6.30 3.77Q6.62 4.27 6.62 4.75L6.62 4.75L6.62 4.75Q6.62 5.21 6.27 5.50L6.27 5.50L6.27 5.50Q5.91 5.78 5.36 5.78L5.36 5.78L5.36 5.78Q5.01 5.78 4.65 5.64L4.65 5.64L4.65 5.64Q4.62 5.08 4.40 4.27L4.40 4.27ZM9.45 8.65L9.45 8.65Q10.77 8.60 11.89 7.29L11.89 7.29L11.89 7.29Q12.57 7.42 12.98 7.81L12.98 7.81L12.98 7.81Q13.40 8.20 13.40 8.81L13.40 8.81L13.40 8.81Q13.40 9.24 12.90 9.63L12.90 9.63L12.90 9.63Q12.40 10.02 11.66 10.26L11.66 10.26L11.66 10.26Q10.92 10.50 10.23 10.50L10.23 10.50L10.23 10.50Q9.56 10.50 8.83 10.06L8.83 10.06L8.83 10.06Q8.11 9.62 7.63 8.97L7.63 8.97L7.63 8.97Q7.15 8.33 7.15 7.76L7.15 7.76L7.15 7.76Q7.15 6.65 7.67 5.44L7.67 5.44L7.67 5.44Q8.18 4.23 9.09 3.42L9.09 3.42L9.09 3.42Q10.00 2.60 11.13 2.60L11.13 2.60L11.13 2.60Q11.83 2.60 12.46 2.86L12.46 2.86L12.46 2.86Q13.09 3.11 13.47 3.53L13.47 3.53L13.47 3.53Q13.85 3.95 13.85 4.40L13.85 4.40L13.85 4.40Q13.85 4.83 13.47 5.17L13.47 5.17L13.47 5.17Q13.09 5.52 12.47 5.52L12.47 5.52L12.47 5.52Q12.28 5.52 12.07 5.47L12.07 5.47L12.07 5.47Q11.72 4.62 11.30 4.27L11.30 4.27L11.30 4.27Q10.37 4.87 9.90 5.95L9.90 5.95L9.90 5.95Q9.42 7.03 9.42 8.15L9.42 8.15L9.42 8.15Q9.42 8.32 9.45 8.65L9.45 8.65ZM17.85 2.59L17.85 2.59Q18.84 2.70 19.66 3.18L19.66 3.18L19.66 3.18Q20.48 3.67 20.94 4.34L20.94 4.34L20.94 4.34Q21.41 5.01 21.41 5.68L21.41 5.68L21.41 5.68Q21.41 6.69 20.89 7.83L20.89 7.83L20.89 7.83Q20.37 8.96 19.45 9.73L19.45 9.73L19.45 9.73Q18.52 10.50 17.39 10.50L17.39 10.50L17.39 10.50Q16.83 10.50 16.20 10.09L16.20 10.09L16.20 10.09Q15.57 9.67 15.14 9.08L15.14 9.08L15.14 9.08Q14.71 8.48 14.71 8.02L14.71 8.02L14.71 8.02Q14.71 7.17 14.92 6.26L14.92 6.26L14.92 6.26Q15.13 5.36 15.57 4.51L15.57 4.51L15.57 4.51Q15.97 4.28 16.38 4.28L16.38 4.28L16.38 4.28Q16.56 4.28 16.72 4.33L16.72 4.33L16.72 4.33Q16.66 4.16 16.66 3.93L16.66 3.93L16.66 3.93Q16.66 3.49 16.98 3.12L16.98 3.12L16.98 3.12Q17.29 2.76 17.85 2.59L17.85 2.59ZM16.88 8.90L16.88 8.90Q18.05 8.51 18.69 7.56L18.69 7.56L18.69 7.56Q19.33 6.61 19.54 5.29L19.54 5.29L19.54 5.29Q18.91 4.84 17.84 4.84L17.84 4.84L17.84 4.84Q17.57 4.84 17.43 4.86L17.43 4.86L17.43 4.86Q17.58 5.14 17.58 5.49L17.58 5.49L17.58 5.49Q17.22 6.06 17.02 6.75L17.02 6.75L17.02 6.75Q16.83 7.45 16.83 8.15L16.83 8.15L16.83 8.15Q16.83 8.57 16.88 8.90L16.88 8.90ZM25.21 2.59L25.21 2.59Q26.21 2.70 27.03 3.18L27.03 3.18L27.03 3.18Q27.85 3.67 28.31 4.34L28.31 4.34L28.31 4.34Q28.77 5.01 28.77 5.68L28.77 5.68L28.77 5.68Q28.77 6.69 28.25 7.83L28.25 7.83L28.25 7.83Q27.73 8.96 26.81 9.73L26.81 9.73L26.81 9.73Q25.89 10.50 24.75 10.50L24.75 10.50L24.75 10.50Q24.19 10.50 23.56 10.09L23.56 10.09L23.56 10.09Q22.93 9.67 22.51 9.08L22.51 9.08L22.51 9.08Q22.08 8.48 22.08 8.02L22.08 8.02L22.08 8.02Q22.08 7.17 22.29 6.26L22.29 6.26L22.29 6.26Q22.50 5.36 22.93 4.51L22.93 4.51L22.93 4.51Q23.34 4.28 23.74 4.28L23.74 4.28L23.74 4.28Q23.93 4.28 24.08 4.33L24.08 4.33L24.08 4.33Q24.02 4.16 24.02 3.93L24.02 3.93L24.02 3.93Q24.02 3.49 24.34 3.12L24.34 3.12L24.34 3.12Q24.65 2.76 25.21 2.59L25.21 2.59ZM24.25 8.90L24.25 8.90Q25.41 8.51 26.05 7.56L26.05 7.56L26.05 7.56Q26.70 6.61 26.91 5.29L26.91 5.29L26.91 5.29Q26.28 4.84 25.20 4.84L25.20 4.84L25.20 4.84Q24.93 4.84 24.79 4.86L24.79 4.86L24.79 4.86Q24.95 5.14 24.95 5.49L24.95 5.49L24.95 5.49Q24.58 6.06 24.39 6.75L24.39 6.75L24.39 6.75Q24.19 7.45 24.19 8.15L24.19 8.15L24.19 8.15Q24.19 8.57 24.25 8.90L24.25 8.90ZM37.20 7.55L37.20 7.55Q37.81 7.76 38.12 8.13L38.12 8.13L38.12 8.13Q38.42 8.50 38.42 8.97L38.42 8.97L38.42 8.97Q38.42 9.31 37.94 9.67L37.94 9.67L37.94 9.67Q37.46 10.02 36.81 10.26L36.81 10.26L36.81 10.26Q36.15 10.50 35.69 10.50L35.69 10.50L35.69 10.50Q35.36 10.50 34.95 10.26L34.95 10.26L34.95 10.26Q34.54 10.02 34.24 9.70L34.24 9.70L34.24 9.70Q33.94 9.38 33.94 9.20L33.94 9.20L33.94 9.20Q33.94 9.06 34.06 8.82L34.06 8.82L34.06 8.82Q34.17 8.58 34.31 8.33L34.31 8.33L34.31 8.33Q34.45 8.08 34.50 7.99L34.50 7.99L34.15 7.80L34.15 7.80Q33.40 9.00 32.74 9.75L32.74 9.75L32.74 9.75Q32.07 10.50 31.47 10.50L31.47 10.50L31.47 10.50Q31.02 10.50 30.51 10.10L30.51 10.10L30.51 10.10Q29.99 9.70 29.62 9.15L29.62 9.15L29.62 9.15Q29.26 8.60 29.26 8.16L29.26 8.16L29.26 8.16Q29.26 6.86 29.81 5.56L29.81 5.56L29.81 5.56Q30.35 4.27 31.26 3.44L31.26 3.44L31.26 3.44Q32.16 2.60 33.17 2.60L33.17 2.60L33.17 2.60Q33.57 2.60 34.00 2.81L34.00 2.81L34.00 2.81Q34.43 3.02 34.80 3.39L34.80 3.39L34.80 3.39Q34.93 2.03 34.93 0.35L34.93 0.35L34.93 0.35Q34.93 0.06 35.12-0.15L35.12-0.15L35.12-0.15Q35.31-0.35 35.57-0.35L35.57-0.35L35.57-0.35Q35.97-0.35 36.45-0.07L36.45-0.07L36.45-0.07Q36.93 0.21 37.27 0.60L37.27 0.60L37.27 0.60Q37.60 0.98 37.60 1.22L37.60 1.22L37.60 1.22Q37.60 1.54 37.46 2.04L37.46 2.04L37.46 2.04Q37.32 2.53 36.96 3.64L36.96 3.64L36.96 3.64Q36.46 5.14 36.33 5.70L36.33 5.70L36.33 5.70Q35.95 7.22 35.76 8.44L35.76 8.44L35.76 8.44Q36.61 8.02 37.20 7.55L37.20 7.55ZM31.46 8.55L31.46 8.55Q32.41 7.84 33.19 7.02L33.19 7.02L33.19 7.02Q33.98 6.20 34.51 5.12L34.51 5.12L34.64 4.58L34.64 4.58Q34.20 4.38 33.87 4.38L33.87 4.38L33.87 4.38Q33.21 4.38 32.69 4.97L32.69 4.97L32.69 4.97Q32.17 5.56 31.86 6.51L31.86 6.51L31.86 6.51Q31.56 7.46 31.46 8.55L31.46 8.55ZM41.08 10.50L41.08 10.50Q40.67 10.50 40.17 10.26L40.17 10.26L40.17 10.26Q39.68 10.01 39.33 9.68L39.33 9.68L39.33 9.68Q38.98 9.35 38.98 9.11L38.98 9.11L38.98 9.11Q38.98 8.88 39.17 7.94L39.17 7.94L39.17 7.94Q39.37 7 39.42 6.73L39.42 6.73L39.42 6.73Q39.84 4.80 39.98 4.06L39.98 4.06L40.12 3.28L40.12 3.28Q40.42 1.65 40.66 0.66L40.66 0.66L40.66 0.66Q40.91-0.34 41.16-0.34L41.16-0.34L41.16-0.34Q41.45-0.34 41.94-0.08L41.94-0.08L41.94-0.08Q42.42 0.17 42.78 0.50L42.78 0.50L42.78 0.50Q43.15 0.84 43.15 1.09L43.15 1.09L43.15 1.09Q43.15 1.43 43.03 1.74L43.03 1.74L43.03 1.74Q42.91 2.06 42.67 2.56L42.67 2.56L42.67 2.56Q42.45 3.00 42.36 3.23L42.36 3.23L42.36 3.23Q42.10 4.06 41.80 5.53L41.80 5.53L41.80 5.53Q41.50 7 41.30 8.37L41.30 8.37L41.30 8.37Q41.75 8.15 42.00 7.99L42.00 7.99L42.00 7.99Q42.25 7.83 42.59 7.55L42.59 7.55L42.59 7.55Q43.20 7.76 43.51 8.13L43.51 8.13L43.51 8.13Q43.81 8.50 43.81 8.97L43.81 8.97L43.81 8.97Q43.81 9.31 43.33 9.67L43.33 9.67L43.33 9.67Q42.85 10.02 42.20 10.26L42.20 10.26L42.20 10.26Q41.54 10.50 41.08 10.50L41.08 10.50ZM47.52 10.50L47.52 10.50Q46.84 10.50 46.12 10.06L46.12 10.06L46.12 10.06Q45.39 9.62 44.91 8.97L44.91 8.97L44.91 8.97Q44.44 8.33 44.44 7.76L44.44 7.76L44.44 7.76Q44.44 6.73 44.92 5.52L44.92 5.52L44.92 5.52Q45.40 4.30 46.26 3.45L46.26 3.45L46.26 3.45Q47.11 2.60 48.19 2.60L48.19 2.60L48.19 2.60Q48.96 2.60 49.58 2.94L49.58 2.94L49.58 2.94Q50.20 3.28 50.55 3.78L50.55 3.78L50.55 3.78Q50.90 4.28 50.90 4.76L50.90 4.76L50.90 4.76Q50.90 5.35 50.37 5.92L50.37 5.92L50.37 5.92Q49.84 6.48 48.89 6.91L48.89 6.91L48.89 6.91Q47.94 7.34 46.72 7.52L46.72 7.52L46.72 7.52Q46.70 7.69 46.70 8.02L46.70 8.02L46.70 8.02Q46.70 8.44 46.73 8.65L46.73 8.65L46.73 8.65Q47.43 8.58 48.12 8.27L48.12 8.27L48.12 8.27Q48.80 7.97 49.62 7.41L49.62 7.41L49.62 7.41Q50.16 7.57 50.44 7.94L50.44 7.94L50.44 7.94Q50.72 8.30 50.72 8.81L50.72 8.81L50.72 8.81Q50.72 9.23 50.21 9.63L50.21 9.63L50.21 9.63Q49.70 10.02 48.94 10.26L48.94 10.26L48.94 10.26Q48.19 10.50 47.52 10.50L47.52 10.50ZM46.93 6.47L46.93 6.47Q47.78 6.16 48.36 5.68L48.36 5.68L48.36 5.68Q48.93 5.21 48.93 4.87L48.93 4.87L48.93 4.87Q48.93 4.48 48.38 4.34L48.38 4.34L48.38 4.34Q47.85 4.73 47.48 5.28L47.48 5.28L47.48 5.28Q47.11 5.82 46.93 6.47L46.93 6.47ZM52.63 10.50L52.63 10.50Q52.39 10.50 52.13 10.24L52.13 10.24L52.13 10.24Q51.87 9.98 51.70 9.62L51.70 9.62L51.70 9.62Q51.52 9.25 51.52 8.97L51.52 8.97L51.52 8.97Q51.52 8.74 51.85 8.47L51.85 8.47L51.85 8.47Q52.18 8.20 52.64 8.02L52.64 8.02L52.64 8.02Q53.10 7.84 53.47 7.84L53.47 7.84L53.47 7.84Q53.70 7.84 53.94 8.09L53.94 8.09L53.94 8.09Q54.18 8.33 54.33 8.67L54.33 8.67L54.33 8.67Q54.47 9.02 54.47 9.25L54.47 9.25L54.47 9.25Q54.47 9.51 54.15 9.80L54.15 9.80L54.15 9.80Q53.82 10.09 53.38 10.30L53.38 10.30L53.38 10.30Q52.93 10.50 52.63 10.50L52.63 10.50ZM58.76 2.20L58.76 2.20Q58.49 2.20 58.12 1.98L58.12 1.98L58.12 1.98Q57.75 1.76 57.48 1.46L57.48 1.46L57.48 1.46Q57.22 1.16 57.22 0.92L57.22 0.92L57.22 0.92Q57.22 0.55 57.41 0.17L57.41 0.17L57.41 0.17Q57.61-0.21 57.90-0.38L57.90-0.38L57.90-0.38Q58.04-0.45 58.35-0.45L58.35-0.45L58.35-0.45Q58.86-0.45 59.37-0.22L59.37-0.22L59.37-0.22Q59.88 0 59.99 0.34L59.99 0.34L59.99 0.34Q60.02 0.41 60.02 0.55L60.02 0.55L60.02 0.55Q60.02 0.87 59.82 1.26L59.82 1.26L59.82 1.26Q59.63 1.65 59.33 1.92L59.33 1.92L59.33 1.92Q59.04 2.20 58.76 2.20L58.76 2.20ZM57.81 10.50L57.81 10.50Q57.44 10.50 56.99 10.26L56.99 10.26L56.99 10.26Q56.53 10.01 56.20 9.68L56.20 9.68L56.20 9.68Q55.87 9.35 55.87 9.13L55.87 9.13L55.87 9.13Q55.87 8.88 56.06 8.39L56.06 8.39L56.06 8.39Q56.24 7.90 56.60 7.04L56.60 7.04L56.60 7.04Q56.88 6.38 57.02 6.01L57.02 6.01L57.02 6.01Q57.16 5.64 57.16 5.49L57.16 5.49L57.16 5.49Q57.16 5.38 57.03 5.24L57.03 5.24L57.03 5.24Q56.90 5.11 56.63 4.91L56.63 4.91L56.63 4.91Q56.32 4.68 56.18 4.54L56.18 4.54L56.18 4.54Q56.03 4.40 56.03 4.24L56.03 4.24L56.03 4.24Q56.03 3.95 56.30 3.56L56.30 3.56L56.30 3.56Q56.57 3.16 56.95 2.88L56.95 2.88L56.95 2.88Q57.32 2.60 57.58 2.60L57.58 2.60L57.58 2.60Q57.90 2.60 58.29 2.88L58.29 2.88L58.29 2.88Q58.67 3.16 58.95 3.55L58.95 3.55L58.95 3.55Q59.22 3.93 59.22 4.17L59.22 4.17L59.22 4.17Q59.22 4.79 58.91 5.93L58.91 5.93L58.91 5.93Q58.59 7.07 58.10 8.39L58.10 8.39L58.10 8.39Q58.44 8.23 58.69 8.06L58.69 8.06L58.69 8.06Q58.94 7.90 59.39 7.55L59.39 7.55L59.39 7.55Q60.02 7.76 60.31 8.14L60.31 8.14L60.31 8.14Q60.61 8.53 60.61 8.97L60.61 8.97L60.61 8.97Q60.61 9.34 60.14 9.69L60.14 9.69L60.14 9.69Q59.67 10.04 59.00 10.27L59.00 10.27L59.00 10.27Q58.32 10.50 57.81 10.50L57.81 10.50ZM68.63 7.55L68.63 7.55Q69.24 7.76 69.55 8.13L69.55 8.13L69.55 8.13Q69.85 8.50 69.85 8.97L69.85 8.97L69.85 8.97Q69.85 9.31 69.37 9.67L69.37 9.67L69.37 9.67Q68.89 10.02 68.24 10.26L68.24 10.26L68.24 10.26Q67.58 10.50 67.12 10.50L67.12 10.50L67.12 10.50Q66.79 10.50 66.37 10.25L66.37 10.25L66.37 10.25Q65.95 10.00 65.65 9.67L65.65 9.67L65.65 9.67Q65.35 9.34 65.35 9.16L65.35 9.16L65.35 9.16Q65.35 9.02 65.66 8.06L65.66 8.06L65.66 8.06Q66.21 6.40 66.21 5.96L66.21 5.96L66.21 5.96Q66.21 5.80 66.12 5.80L66.12 5.80L66.12 5.80Q65.56 5.80 64.04 7.76L64.04 7.76L64.04 7.76Q63.98 7.98 63.92 8.32L63.92 8.32L63.92 8.32Q63.85 8.65 63.83 8.79L63.83 8.79L63.83 8.79Q63.67 9.62 63.54 10.06L63.54 10.06L63.54 10.06Q63.41 10.50 63.20 10.50L63.20 10.50L63.20 10.50Q62.83 10.50 62.38 10.26L62.38 10.26L62.38 10.26Q61.92 10.01 61.59 9.68L61.59 9.68L61.59 9.68Q61.26 9.35 61.26 9.13L61.26 9.13L61.26 9.13Q61.26 8.88 61.45 8.39L61.45 8.39L61.45 8.39Q61.63 7.90 61.99 7.04L61.99 7.04L61.99 7.04Q62.27 6.38 62.41 6.01L62.41 6.01L62.41 6.01Q62.55 5.64 62.55 5.49L62.55 5.49L62.55 5.49Q62.55 5.38 62.42 5.24L62.42 5.24L62.42 5.24Q62.29 5.11 62.02 4.91L62.02 4.91L62.02 4.91Q61.71 4.68 61.57 4.54L61.57 4.54L61.57 4.54Q61.42 4.40 61.42 4.24L61.42 4.24L61.42 4.24Q61.42 3.95 61.69 3.56L61.69 3.56L61.69 3.56Q61.96 3.16 62.34 2.88L62.34 2.88L62.34 2.88Q62.71 2.60 62.97 2.60L62.97 2.60L62.97 2.60Q63.27 2.60 63.65 2.87L63.65 2.87L63.65 2.87Q64.04 3.14 64.32 3.48L64.32 3.48L64.32 3.48Q64.61 3.82 64.61 4.00L64.61 4.00L64.61 4.00Q64.61 4.34 64.53 4.83L64.53 4.83L64.53 4.83Q64.46 5.32 64.33 5.80L64.33 5.80L64.33 5.80Q65.35 4.45 66.02 3.72L66.02 3.72L66.02 3.72Q66.70 2.98 67.07 2.98L67.07 2.98L67.07 2.98Q67.34 2.98 67.72 3.25L67.72 3.25L67.72 3.25Q68.10 3.51 68.37 3.86L68.37 3.86L68.37 3.86Q68.64 4.20 68.64 4.38L68.64 4.38L68.64 4.38Q68.63 4.62 68.45 5.19L68.45 5.19L68.45 5.19Q68.26 5.77 67.93 6.72L67.93 6.72L67.93 6.72Q67.48 7.95 67.35 8.39L67.35 8.39L67.35 8.39Q67.79 8.16 68.03 8.00L68.03 8.00L68.03 8.00Q68.28 7.84 68.63 7.55L68.63 7.55Z"></path></g><!----><g data-v-423bf9ae="" id="bcda49c7-f47d-4936-9a50-bbdc07fd051b" transform="matrix(1.5025043267205114,0,0,1.5025043267205114,-54.053428056712775,-29.050085575959287)" stroke="none" fill="#7DE38D"><path d="M48.9 47.9c3.7 0 6.7-2.9 6.7-6.6s-3-6.6-6.7-6.6-6.7 2.9-6.7 6.6 3 6.6 6.7 6.6zm0-10.7c2.3 0 4.2 1.8 4.2 4.1s-1.9 4.1-4.2 4.1c-2.3 0-4.2-1.8-4.2-4.1 0-2.2 1.9-4.1 4.2-4.1z"></path><path d="M60.4 22.3c-2 0-3.6 1.6-3.6 3.5V49H43.3c-4 0-7.3 3.2-7.3 7.1v20.3c0 2 1.6 3.5 3.6 3.5s3.6-1.6 3.6-3.5v-1.1h18.9c1 0 1.8-.8 1.8-1.8V25.9c.1-2-1.5-3.6-3.5-3.6zm1.1 50.6H43.3V58.3c0-.7-.6-1.2-1.3-1.2s-1.3.5-1.3 1.2v18.2c0 .6-.5 1.1-1.1 1.1s-1.1-.5-1.1-1.1V56.2c0-2.6 2.2-4.7 4.8-4.7h13.9c1.1 0 2-.9 2-2V25.9c0-.6.5-1.1 1.1-1.1s1.1.5 1.1 1.1v47zM44.1 23.7c.3 0 .6-.2.7-.5.1-.4.3-.8.7-1.1.5-.4 1.1-.7 1.7-.7 1.3 0 2.3 1 2.3 2.3 0 .7-.3 1.4-.8 1.8-1.2 1-1.9 2.3-2.2 3.7-.1.4.3.8.7.8.3 0 .6-.2.7-.6.2-1.1.8-2.2 1.7-2.9.9-.7 1.3-1.8 1.3-2.9 0-.9-.4-1.8-1.1-2.5-.7-.7-1.6-1.1-2.6-1.1s-2 .3-2.7 1c-.5.5-.9 1.1-1 1.8-.2.5.2.9.6.9z"></path><ellipse cx="47.2" cy="31.6" rx="1" ry="1"></ellipse></g><!----></svg>