<svg data-v-423bf9ae="" xmlns="http://www.w3.org/2000/svg" viewBox="0 0 511 90" class="iconLeft"><!----><!----><!----><g data-v-423bf9ae="" id="1fefcbe2-98bc-42af-b420-1637cc76a008" fill="#ffffff" transform="matrix(5.190311658471062,0,0,5.190311658471062,112.55812804755604,8.875432611769199)"><path d="M8.37 4.40L8.37 4.40L8.37 4.40Q7.31 6.72 4.89 6.72L4.89 6.72L4.89 6.72Q4.63 6.72 3.33 6.45L3.33 6.45L3.33 6.45Q3.54 7.01 4.68 7.25L4.68 7.25L4.68 7.25Q6.37 7.63 6.59 7.73L6.59 7.73L6.59 7.73Q7.57 8.16 7.57 9.23L7.57 9.23L7.57 9.23Q7.57 9.87 6.08 11.23L6.08 11.23L6.08 11.23Q4.68 12.50 4.38 12.50L4.38 12.50L4.38 12.50Q4.44 12.50 3.53 12.14L3.53 12.14L3.53 12.14Q2.62 11.79 1.93 11.79L1.93 11.79L1.93 11.79Q1.41 11.79 0.77 11.94L0.77 11.94L0.77 11.94Q0.45 12.03 0.13 12.11L0.13 12.11L0.13 12.11Q0.87 10.77 1.81 10.25L1.81 10.25L1.81 10.25Q2.53 9.86 3.68 9.86L3.68 9.86L3.68 9.86Q3.99 9.86 4.54 10.00L4.54 10.00L4.54 10.00Q5.18 10.15 5.40 10.18L5.40 10.18L5.40 10.18Q4.83 9.55 3.64 9.30L3.64 9.30L3.64 9.30Q2.07 8.97 1.89 8.89L1.89 8.89L1.89 8.89Q1.11 8.53 1.11 7.46L1.11 7.46L1.11 7.46Q1.11 6.87 2.30 5.45L2.30 5.45L2.30 5.45Q3.50 4.03 4.13 4.03L4.13 4.03L4.13 4.03Q4.10 4.03 4.96 4.41L4.96 4.41L4.96 4.41Q5.82 4.79 6.65 4.79L6.65 4.79L6.65 4.79Q7.13 4.79 7.59 4.63L7.59 4.63L7.59 4.63Q8.19 4.42 8.37 4.40ZM16.32 4.47L16.32 4.47L16.32 4.47Q16.32 5.00 14.99 5.98L14.99 5.98L14.99 5.98Q13.80 6.85 13.55 6.86L13.55 6.86L13.55 6.86Q13.47 6.87 13.24 6.89L13.24 6.89L13.24 6.89Q13.02 6.92 12.98 6.92L12.98 6.92L12.98 6.92Q12.19 6.92 11.48 6.19L11.48 6.19L11.48 6.19Q11.16 6.66 11.16 7.76L11.16 7.76L11.16 7.76Q11.16 8.78 11.68 9.53L11.68 9.53L11.68 9.53Q12.32 10.47 13.51 10.47L13.51 10.47L13.51 10.47Q13.92 10.47 14.41 10.22L14.41 10.22L14.41 10.22Q15.15 9.84 15.50 9.72L15.50 9.72L15.50 9.72Q15.29 10.57 13.99 11.50L13.99 11.50L13.99 11.50Q12.68 12.43 11.75 12.43L11.75 12.43L11.75 12.43Q10.51 12.43 9.81 11.54L9.81 11.54L9.81 11.54Q9.20 10.72 9.20 9.51L9.20 9.51L9.20 9.51Q9.20 9.49 9.30 8.50L9.30 8.50L9.30 8.50Q9.37 7.81 10.32 6.43L10.32 6.43L10.32 6.43Q10.53 6.13 11.44 5.22L11.44 5.22L11.44 5.22Q12.57 4.12 12.94 4.12L12.94 4.12L12.94 4.12Q13.24 4.12 13.69 4.54L13.69 4.54L13.69 4.54Q14.13 4.96 14.74 4.96L14.74 4.96L14.74 4.96Q15.08 4.96 15.40 4.77L15.40 4.77L15.40 4.77Q15.93 4.47 16.24 4.35L16.24 4.35L16.24 4.35Q16.32 4.44 16.32 4.47ZM25.23 7.03L25.23 7.03L25.23 7.03Q25.23 8.20 23.86 9.55L23.86 9.55L23.86 9.55Q22.48 10.78 21.13 12.01L21.13 12.01L21.13 12.01Q20.97 12.17 20.47 12.26L20.47 12.26L20.47 12.26Q20.02 12.36 19.66 12.36L19.66 12.36L19.66 12.36Q18.68 12.36 17.79 11.56L17.79 11.56L17.79 11.56Q16.87 10.72 16.87 9.67L16.87 9.67L16.87 9.67Q16.87 8.26 17.99 6.47L17.99 6.47L17.99 6.47Q19.15 4.61 20.58 3.89L20.58 3.89L20.58 3.89Q20.59 3.92 20.58 4.06L20.58 4.06L20.58 4.06Q20.58 4.17 20.64 4.17L20.64 4.17L20.64 4.17Q20.78 4.17 21.32 4.03L21.32 4.03L21.32 4.03Q21.85 3.89 22.29 3.89L22.29 3.89L22.29 3.89Q23.55 3.89 24.42 4.89L24.42 4.89L24.42 4.89Q25.23 5.82 25.23 7.03ZM23.07 9.32L23.07 9.32L23.07 8.29L23.07 8.29Q23.07 7.77 22.34 6.97L22.34 6.97L22.34 6.97Q21.60 6.17 21.15 6.09L21.15 6.09L21.15 6.09Q20.57 5.99 20.38 5.99L20.38 5.99L20.38 5.99Q19.50 5.99 19.22 6.45L19.22 6.45L19.22 6.45Q19.03 6.79 19.03 7.76L19.03 7.76L19.03 7.76Q19.03 8.71 19.85 9.48L19.85 9.48L19.85 9.48Q20.68 10.25 21.56 10.25L21.56 10.25L21.56 10.25Q22.05 10.25 22.25 10.12L22.25 10.12L22.25 10.12Q22.39 10.04 23.07 9.32ZM34.89 7.03L34.89 7.03L34.89 7.03Q34.89 8.20 33.52 9.55L33.52 9.55L33.52 9.55Q32.14 10.78 30.79 12.01L30.79 12.01L30.79 12.01Q30.63 12.17 30.13 12.26L30.13 12.26L30.13 12.26Q29.68 12.36 29.32 12.36L29.32 12.36L29.32 12.36Q28.34 12.36 27.45 11.56L27.45 11.56L27.45 11.56Q26.53 10.72 26.53 9.67L26.53 9.67L26.53 9.67Q26.53 8.26 27.65 6.47L27.65 6.47L27.65 6.47Q28.81 4.61 30.24 3.89L30.24 3.89L30.24 3.89Q30.25 3.92 30.24 4.06L30.24 4.06L30.24 4.06Q30.24 4.17 30.30 4.17L30.30 4.17L30.30 4.17Q30.44 4.17 30.98 4.03L30.98 4.03L30.98 4.03Q31.51 3.89 31.95 3.89L31.95 3.89L31.95 3.89Q33.21 3.89 34.08 4.89L34.08 4.89L34.08 4.89Q34.89 5.82 34.89 7.03ZM32.73 9.32L32.73 9.32L32.73 8.29L32.73 8.29Q32.73 7.77 32.00 6.97L32.00 6.97L32.00 6.97Q31.26 6.17 30.81 6.09L30.81 6.09L30.81 6.09Q30.23 5.99 30.04 5.99L30.04 5.99L30.04 5.99Q29.16 5.99 28.88 6.45L28.88 6.45L28.88 6.45Q28.69 6.79 28.69 7.76L28.69 7.76L28.69 7.76Q28.69 8.71 29.51 9.48L29.51 9.48L29.51 9.48Q30.34 10.25 31.22 10.25L31.22 10.25L31.22 10.25Q31.71 10.25 31.91 10.12L31.91 10.12L31.91 10.12Q32.05 10.04 32.73 9.32ZM42.90 7.17L42.90 7.17L42.90 7.17Q42.90 7.14 42.92 7.45L42.92 7.45L42.92 7.45Q42.94 7.76 42.94 7.98L42.94 7.98L42.94 7.98Q42.92 8.29 42.84 8.43L42.84 8.43L42.84 8.43Q42 9.88 40.98 10.98L40.98 10.98L40.98 10.98Q39.51 12.56 38.32 12.56L38.32 12.56L38.32 12.56Q37.27 12.56 36.67 11.52L36.67 11.52L36.67 11.52Q36.18 10.71 36.18 9.80L36.18 9.80L36.18 9.80Q36.18 8.58 37.24 7.06L37.24 7.06L37.24 7.06Q38.30 5.54 39.48 5.00L39.48 5.00L39.48 5.00Q39.61 5.19 39.62 5.21L39.62 5.21L39.62 5.21Q39.75 5.36 39.89 5.36L39.89 5.36L40.85 5.36L40.85 5.36Q40.91 5.28 40.88 5.10L40.88 5.10L40.88 5.10Q40.85 4.82 40.85 4.83L40.85 4.83L40.85 3.93L40.85 3.93Q40.85 3.82 40.43 3.53L40.43 3.53L40.43 3.53Q39.96 3.19 39.91 3.14L39.91 3.14L39.91 3.14Q39.77 3.25 39.62 3.35L39.62 3.35L39.62 3.35Q39.42 3.46 39.19 3.46L39.19 3.46L39.19 3.46Q39.19 3.02 40.21 2.11L40.21 2.11L40.21 2.11Q41.23 1.20 41.57 1.20L41.57 1.20L41.57 1.20Q41.62 1.20 42.18 1.66L42.18 1.66L42.18 1.66Q42.74 2.11 42.74 2.20L42.74 2.20L42.74 3.42L42.74 3.42Q42.74 3.44 42.78 3.60L42.78 3.60L42.78 3.60Q42.83 3.77 42.83 3.81L42.83 3.81L42.83 5.68L42.83 5.68Q42.83 5.68 42.86 6.31L42.86 6.31L42.86 6.31Q42.90 6.94 42.90 7.17ZM40.99 8.65L40.99 8.65L40.91 6.29L40.91 6.29Q40.71 6.44 40.19 6.78L40.19 6.78L40.19 6.78Q39.49 7.22 39.33 7.22L39.33 7.22L38.19 7.22L38.19 7.22Q38.18 7.34 38.12 7.57L38.12 7.57L38.12 7.57Q38.08 7.74 38.08 8.19L38.08 8.19L38.08 8.19Q38.08 9.18 38.61 9.91L38.61 9.91L38.61 9.91Q39.26 10.79 40.36 10.70L40.36 10.70L40.36 10.70Q40.85 10.21 40.96 9.69L40.96 9.69L40.96 9.69Q40.99 9.51 40.99 8.65ZM48.73 9.95L48.73 9.95L48.73 9.95Q48.73 10.51 47.59 11.61L47.59 11.61L47.59 11.61Q46.51 12.61 46.20 12.66L46.20 12.66L46.20 12.66Q46.10 12.53 45.57 12.11L45.57 12.11L45.57 12.11Q45.28 11.87 45.28 11.55L45.28 11.55L45.28 7.41L45.28 7.41Q45.28 7.38 45.32 7.19L45.32 7.19L45.32 7.19Q45.36 7.00 45.36 6.94L45.36 6.94L45.36 3.92L45.36 3.92Q45.15 3.61 44.97 3.44L44.97 3.44L44.97 3.44Q44.53 3.74 44.10 3.93L44.10 3.93L44.10 3.93Q44.04 3.88 44.04 3.75L44.04 3.75L44.04 3.75Q44.04 3.30 45.12 2.24L45.12 2.24L45.12 2.24Q46.20 1.18 46.66 1.18L46.66 1.18L46.66 1.18Q46.79 1.18 47.12 1.48L47.12 1.48L47.12 1.48Q47.46 1.79 47.46 1.93L47.46 1.93L47.46 5.28L47.46 5.28Q47.46 5.32 47.42 5.43L47.42 5.43L47.42 5.43Q47.38 5.54 47.38 5.60L47.38 5.60L47.38 9.59L47.38 9.59Q47.38 9.72 47.59 9.97L47.59 9.97L47.59 9.97Q47.80 10.22 47.94 10.22L47.94 10.22L47.94 10.22Q47.96 10.22 48.23 10.04L48.23 10.04L48.23 10.04Q48.50 9.87 48.68 9.81L48.68 9.81L48.68 9.81Q48.73 9.87 48.73 9.95ZM56.52 9.81L56.52 9.81L56.52 9.81Q56.52 10.32 55.19 11.31L55.19 11.31L55.19 11.31Q54.04 12.17 53.69 12.26L53.69 12.26L53.69 12.26Q53.16 12.42 52.81 12.42L52.81 12.42L52.81 12.42Q52.44 12.42 51.60 12.16L51.60 12.16L51.60 12.16Q50.75 11.90 50.48 11.69L50.48 11.69L50.48 11.69Q49.64 11.03 49.64 9.41L49.64 9.41L49.64 9.41Q49.64 6.57 53.41 4.51L53.41 4.51L53.41 4.51Q53.51 4.69 53.96 4.87L53.96 4.87L53.96 4.87Q54.42 5.05 54.89 5.05L54.89 5.05L54.89 5.05Q55.16 5.05 55.29 4.96L55.29 4.96L55.29 4.96Q55.47 4.83 55.71 4.76L55.71 4.76L55.71 4.76Q55.76 4.82 55.76 4.89L55.76 4.89L55.76 4.89Q55.76 5.05 55.37 5.52L55.37 5.52L55.37 5.52Q54.19 6.89 53.24 6.89L53.24 6.89L53.24 6.89Q52.98 6.89 52.49 6.76L52.49 6.76L52.49 6.76Q51.95 6.62 51.76 6.48L51.76 6.48L51.76 6.48Q51.66 6.66 51.52 7.08L51.52 7.08L51.53 8.04L51.53 8.04Q51.55 8.01 51.85 7.79L51.85 7.79L51.85 7.79Q52.15 7.57 52.25 7.57L52.25 7.57L52.25 7.57Q53.30 7.78 53.38 7.78L53.38 7.78L53.38 7.78Q54.32 7.78 54.75 7.49L54.75 7.49L54.75 7.49Q55.50 6.99 55.82 6.87L55.82 6.87L55.86 7.01L55.86 7.01Q55.20 8.08 54.17 8.81L54.17 8.81L54.17 8.81Q53.13 9.55 52.12 9.65L52.12 9.65L52.12 9.65Q52.26 9.91 53.07 10.25L53.07 10.25L53.07 10.25Q53.89 10.58 54.46 10.58L54.46 10.58L54.46 10.58Q55.02 10.58 55.47 10.28L55.47 10.28L55.47 10.28Q56.14 9.81 56.46 9.69L56.46 9.69L56.46 9.69Q56.52 9.74 56.52 9.81ZM60.72 11.05L60.86 11.05L60.86 11.05Q60.87 11.26 60.24 11.91L60.24 11.91L60.24 11.91Q59.61 12.57 59.35 12.57L59.35 12.57L59.35 12.57Q59.23 12.57 59.03 12.33L59.03 12.33L59.03 12.33Q58.83 12.10 58.73 12.10L58.73 12.10L58.73 12.10Q58.74 12.10 58.39 12.24L58.39 12.24L58.39 12.24Q58.31 12.18 58.31 12.14L58.31 12.14L58.31 12.14Q58.31 11.84 58.93 11.33L58.93 11.33L58.93 11.33Q59.56 10.82 59.84 10.82L59.84 10.82L59.84 10.82Q59.91 10.82 60.37 11.28L60.37 11.28L60.37 11.28Q60.52 11.16 60.72 11.05L60.72 11.05ZM66.14 1.85L66.35 1.85L66.35 1.85Q66.11 2.52 65.25 3.30L65.25 3.30L65.25 3.30Q64.39 4.09 63.90 4.03L63.90 4.03L63.90 4.03Q63.67 3.74 63.24 3.25L63.24 3.25L63.24 3.25Q62.82 3.57 62.65 3.57L62.65 3.57L62.65 3.57Q62.59 3.51 62.59 3.43L62.59 3.43L62.59 3.43Q62.59 3.02 63.61 2.10L63.61 2.10L63.61 2.10Q64.62 1.18 64.95 1.18L64.95 1.18L64.95 1.18Q65.09 1.18 65.41 1.53L65.41 1.53L65.41 1.53Q65.62 1.76 65.83 2.00L65.83 2.00L65.83 2.00Q65.93 1.96 66.14 1.85L66.14 1.85ZM66.39 9.34L66.39 9.34L66.39 9.34Q66.39 10.02 65.45 11.32L65.45 11.32L65.45 11.32Q64.51 12.61 63.98 12.60L63.98 12.60L63.81 12.60L63.81 12.60Q63.91 12.31 64.19 11.80L64.19 11.80L64.19 11.80Q64.40 11.44 64.40 11.14L64.40 11.14L64.40 11.14Q64.40 11.10 64.36 10.91L64.36 10.91L64.36 10.91Q64.32 10.72 64.32 10.67L64.32 10.67L64.32 8.53L64.32 8.53Q64.32 8.05 64.18 7.57L64.18 7.57L64.18 7.57Q63.98 6.93 63.62 6.93L63.62 6.93L63.62 6.93Q63.57 6.93 63.41 7.05L63.41 7.05L63.41 7.05Q63.25 7.17 63.20 7.17L63.20 7.17L62.94 7.17L62.94 7.17Q63.13 6.52 64.15 5.63L64.15 5.63L64.15 5.63Q65.10 4.79 65.44 4.82L65.44 4.82L65.44 4.82Q65.70 4.96 66.07 5.29L66.07 5.29L66.07 5.29Q66.32 5.80 66.32 6.64L66.32 6.64L66.32 8.76L66.32 8.76Q66.32 8.79 66.35 9.04L66.35 9.04L66.35 9.04Q66.39 9.28 66.39 9.34ZM76.72 10.50L76.72 10.50L76.72 10.50Q76.72 10.86 75.87 11.66L75.87 11.66L75.87 11.66Q75.03 12.46 74.75 12.46L74.75 12.46L74.75 12.46Q74.76 12.46 74.37 12.32L74.37 12.32L74.37 12.32Q73.98 12.18 73.67 12.18L73.67 12.18L73.67 12.18Q73.67 12.18 72.84 12.25L72.84 12.25L72.84 12.25Q72.74 12.17 72.74 12.11L72.74 12.11L72.74 12.11Q74.06 10.14 74.06 8.62L74.06 8.62L74.06 8.62Q74.06 7.57 74.07 8.12L74.07 8.12L74.07 8.12Q74.06 7.78 73.88 7.34L73.88 7.34L73.88 7.34Q73.79 7.11 73.69 6.88L73.69 6.88L73.69 6.88Q73.58 6.65 73.37 6.51L73.37 6.51L73.37 6.51Q73.00 6.24 72.44 6.01L72.44 6.01L72.44 6.01Q71.79 5.71 71.43 5.71L71.43 5.71L71.43 5.71Q71.15 5.71 71.08 5.77L71.08 5.77L71.08 5.77Q70.74 6.05 70.63 6.12L70.63 6.12L70.63 8.27L70.63 8.27Q70.63 8.79 70.46 9.98L70.46 9.98L70.46 9.98Q70.56 10.07 71.08 10.43L71.08 10.43L71.08 10.43Q71.48 10.71 71.48 10.77L71.48 10.77L71.48 10.77Q71.48 11.07 70.62 11.91L70.62 11.91L70.62 11.91Q69.76 12.74 69.48 12.74L69.48 12.74L69.48 12.74Q69.24 12.74 68.79 12.31L68.79 12.31L68.79 12.31Q68.33 11.89 68.33 11.70L68.33 11.70L68.33 11.70Q68.33 11.66 68.42 10.99L68.42 10.99L68.42 10.99Q68.50 10.32 68.50 10.26L68.50 10.26L68.50 7.50L68.50 7.50Q68.50 7.43 68.59 7.17L68.59 7.17L68.59 7.17Q68.39 7.04 67.45 6.41L67.45 6.41L67.45 6.41Q67.00 6.73 66.85 6.73L66.85 6.73L66.85 6.73Q66.81 6.73 66.77 6.72L66.77 6.72L66.77 6.72Q66.75 6.27 67.73 5.28L67.73 5.28L67.73 5.28Q68.71 4.28 69.19 4.28L69.19 4.28L69.19 4.28Q69.31 4.28 69.92 4.65L69.92 4.65L69.92 4.65Q70.60 5.05 70.73 5.31L70.73 5.31L70.73 5.31Q71.58 4.41 72.03 4.09L72.03 4.09L72.03 4.09Q72.66 3.64 73.28 3.64L73.28 3.64L73.28 3.64Q73.63 3.64 74.20 3.82L74.20 3.82L74.20 3.82Q75.00 4.09 75.54 4.58L75.54 4.58L75.54 4.58Q75.80 4.80 76.01 5.56L76.01 5.56L76.01 5.56Q76.19 6.23 76.19 6.69L76.19 6.69L76.19 6.69Q76.19 8.11 75.08 10.07L75.08 10.07L75.08 10.07Q75.54 10.11 76.01 10.15L76.01 10.15L76.01 10.15Q76.72 10.25 76.72 10.50Z"></path></g><!----><g data-v-423bf9ae="" id="2216d6ca-31dd-4b76-a06b-9751200adf99" transform="matrix(1.1654107594570924,0,0,1.1654107594570924,-8.939716296192444,-10.552710970653543)" stroke="none" fill="#D7F323"><path d="M69.946 66.583c0-3.739 2.938-6.78 6.63-6.965V43.726L62.55 47.577c.086-.673.138-1.355.138-2.054-.002-9.386-7.637-17.021-17.022-17.021-9.385 0-17.021 7.636-17.021 17.021 0 .697.052 1.381.138 2.055l-14.027-3.852v15.893c3.692.184 6.631 3.226 6.631 6.965 0 3.737-2.938 6.776-6.631 6.961v7.674l29.931 5.394v-34.67L31.782 48.4a13.936 13.936 0 0 1-.313-2.879c0-7.827 6.368-14.195 14.196-14.195s14.196 6.369 14.197 14.196c0 .989-.116 1.946-.314 2.878l-12.902 3.543v34.668l29.931-5.395v-7.673c-3.693-.184-6.631-3.223-6.631-6.96z"></path><circle cx="77.209" cy="66.581" r="6.121"></circle><circle cx="14.121" cy="66.583" r="6.121"></circle><path d="M66.186 29.894c-1.646 0-2.846 1.24-2.846 2.949 0 1.662 1.209 2.914 2.813 2.914 1.643 0 2.842-1.225 2.842-2.914 0-1.712-1.179-2.949-2.809-2.949zM62.869 14.322c.762-.58 2.052-.971 3.2-.971 1.241.019 2.733.452 2.733 2.397 0 1.429-.861 2.721-2.354 4.479-1.802 2.165-2.628 4.492-2.383 6.705l.119 1.573h4.156l-.063-1.667c-.101-1.702.444-3.091 1.883-4.793 1.845-2.188 3.254-4.068 3.254-6.694-.004-2.969-2.07-5.964-6.69-5.964-2.055 0-4.231.612-5.543 1.567l-.423.308 1.377 3.618.734-.558zM80.771 29.894c-1.648 0-2.841 1.24-2.841 2.949 0 1.662 1.207 2.914 2.804 2.914 1.648 0 2.851-1.225 2.851-2.914-.001-1.712-1.186-2.949-2.814-2.949zM81.313 9.389c-2.056 0-4.231.612-5.542 1.567l-.427.308 1.376 3.618.738-.56c.76-.58 2.051-.971 3.197-.971 1.246.019 2.731.452 2.731 2.397 0 1.43-.864 2.722-2.351 4.479-1.802 2.165-2.629 4.492-2.386 6.705l.125 1.573h4.15l-.054-1.665c-.104-1.702.438-3.092 1.88-4.793C86.595 19.859 88 17.98 88 15.353c-.005-2.969-2.071-5.964-6.687-5.964z"></path></g><!----></svg>